HIERARCHY
ROOT Hips
{
  OFFSET 5.84602e-005 68.8428 3.50346
  CHANNELS 6 Xposition Yposition Zposition Zrotation Xrotation Yrotation
  JOINT Spine
  {
    OFFSET 0 8.597 -4.6522
    CHANNELS 3 Zrotation Xrotation Yrotation
    JOINT Spine1
    {
      OFFSET 0 7.8454 0.4098
      CHANNELS 3 Zrotation Xrotation Yrotation
      JOINT Spine2
      {
        OFFSET 0 9.7078 -2.1609
        CHANNELS 3 Zrotation Xrotation Yrotation
        JOINT Neck
        {
          OFFSET 0 21.8761 -0.4549
          CHANNELS 3 Zrotation Xrotation Yrotation
          JOINT Head
          {
            OFFSET 0 12.3537 3.3602
            CHANNELS 3 Zrotation Xrotation Yrotation
            End Site
            {
              OFFSET 0.0001 18.9506 0.5657
            }
          }
        }
        JOINT LeftShoulder
        {
          OFFSET 2.2086 21.1115 7.2329
          CHANNELS 3 Zrotation Xrotation Yrotation
          JOINT LeftArm
          {
            OFFSET 13.1193 3.0282 -4.8998
            CHANNELS 3 Zrotation Xrotation Yrotation
            JOINT LeftForeArm
            {
              OFFSET 27.4081 -0.0973053 -0.2375
              CHANNELS 3 Zrotation Xrotation Yrotation
              JOINT LeftHand
              {
                OFFSET 22.8641 0.0662994 -0.1369
                CHANNELS 3 Zrotation Xrotation Yrotation
                JOINT LeftHandIndex1
                {
                  OFFSET 8.8614 0.775009 2.4612
                  CHANNELS 3 Zrotation Xrotation Yrotation
                  JOINT LeftHandIndex2
                  {
                    OFFSET 3.3146 -0.808304 0.5841
                    CHANNELS 3 Zrotation Xrotation Yrotation
                    JOINT LeftHandIndex3
                    {
                      OFFSET 2.2628 -0.552002 0.3989
                      CHANNELS 3 Zrotation Xrotation Yrotation
                      End Site
                      {
                        OFFSET 1.6102 -0.4807 0.2612
                      }
                    }
                  }
                }
                JOINT LeftHandMiddle1
                {
                  OFFSET 8.9937 0.895004 0.2143
                  CHANNELS 3 Zrotation Xrotation Yrotation
                  JOINT LeftHandMiddle2
                  {
                    OFFSET 4.0984 0.0113983 -0.0242
                    CHANNELS 3 Zrotation Xrotation Yrotation
                    JOINT LeftHandMiddle3
                    {
                      OFFSET 2.2716 0.00689697 -0.0138001
                      CHANNELS 3 Zrotation Xrotation Yrotation
                      End Site
                      {
                        OFFSET 2.0404 -0.1441 0.0027
                      }
                    }
                  }
                }
                JOINT LeftHandRing1
                {
                  OFFSET 8.5234 0.597198 -2.0164
                  CHANNELS 3 Zrotation Xrotation Yrotation
                  JOINT LeftHandRing2
                  {
                    OFFSET 3.7188 -0.188293 -0.2328
                    CHANNELS 3 Zrotation Xrotation Yrotation
                    JOINT LeftHandRing3
                    {
                      OFFSET 2.1191 -0.106598 -0.1332
                      CHANNELS 3 Zrotation Xrotation Yrotation
                      End Site
                      {
                        OFFSET 1.8737 -0.2304 -0.0886
                      }
                    }
                  }
                }
                JOINT LeftHandPinky1
                {
                  OFFSET 7.9094 -0.601089 -3.4825
                  CHANNELS 3 Zrotation Xrotation Yrotation
                  JOINT LeftHandPinky2
                  {
                    OFFSET 2.2874 -0.477005 -0.6314
                    CHANNELS 3 Zrotation Xrotation Yrotation
                    JOINT LeftHandPinky3
                    {
                      OFFSET 1.6774 -0.349396 -0.4633
                      CHANNELS 3 Zrotation Xrotation Yrotation
                      End Site
                      {
                        OFFSET 1.4888 -0.4091 -0.3416
                      }
                    }
                  }
                }
                JOINT LeftHandThumb1
                {
                  OFFSET 1.833 -1.3875 1.3896
                  CHANNELS 3 Zrotation Xrotation Yrotation
                  JOINT LeftHandThumb2
                  {
                    OFFSET 3.4129 -1.121 2.5732
                    CHANNELS 3 Zrotation Xrotation Yrotation
                    JOINT LeftHandThumb3
                    {
                      OFFSET 2.2474 -0.804199 1.6192
                      CHANNELS 3 Zrotation Xrotation Yrotation
                      End Site
                      {
                        OFFSET 1.6527 -0.5689 1.1317
                      }
                    }
                  }
                }
              }
            }
          }
        }
        JOINT RightShoulder
        {
          OFFSET -2.2086 21.1115 7.2329
          CHANNELS 3 Zrotation Xrotation Yrotation
          JOINT RightArm
          {
            OFFSET -13.1216 3.0287 -4.9007
            CHANNELS 3 Zrotation Xrotation Yrotation
            JOINT RightForeArm
            {
              OFFSET -27.4081 -0.0973053 -0.2375
              CHANNELS 3 Zrotation Xrotation Yrotation
              JOINT RightHand
              {
                OFFSET -22.8641 0.0664063 -0.1369
                CHANNELS 3 Zrotation Xrotation Yrotation
                JOINT RightHandIndex1
                {
                  OFFSET -8.8614 0.774994 2.4612
                  CHANNELS 3 Zrotation Xrotation Yrotation
                  JOINT RightHandIndex2
                  {
                    OFFSET -3.3146 -0.808304 0.5841
                    CHANNELS 3 Zrotation Xrotation Yrotation
                    JOINT RightHandIndex3
                    {
                      OFFSET -2.2628 -0.552002 0.3989
                      CHANNELS 3 Zrotation Xrotation Yrotation
                      End Site
                      {
                        OFFSET -1.6102 -0.4807 0.2612
                      }
                    }
                  }
                }
                JOINT RightHandMiddle1
                {
                  OFFSET -8.9937 0.894989 0.2143
                  CHANNELS 3 Zrotation Xrotation Yrotation
                  JOINT RightHandMiddle2
                  {
                    OFFSET -4.0984 0.0113983 -0.0242
                    CHANNELS 3 Zrotation Xrotation Yrotation
                    JOINT RightHandMiddle3
                    {
                      OFFSET -2.2716 0.00691223 -0.0138001
                      CHANNELS 3 Zrotation Xrotation Yrotation
                      End Site
                      {
                        OFFSET -2.0404 -0.1441 0.0027
                      }
                    }
                  }
                }
                JOINT RightHandRing1
                {
                  OFFSET -8.5234 0.597198 -2.0164
                  CHANNELS 3 Zrotation Xrotation Yrotation
                  JOINT RightHandRing2
                  {
                    OFFSET -3.7188 -0.188309 -0.2328
                    CHANNELS 3 Zrotation Xrotation Yrotation
                    JOINT RightHandRing3
                    {
                      OFFSET -2.1191 -0.106598 -0.1332
                      CHANNELS 3 Zrotation Xrotation Yrotation
                      End Site
                      {
                        OFFSET -1.8737 -0.2304 -0.0886
                      }
                    }
                  }
                }
                JOINT RightHandPinky1
                {
                  OFFSET -7.9094 -0.601105 -3.4825
                  CHANNELS 3 Zrotation Xrotation Yrotation
                  JOINT RightHandPinky2
                  {
                    OFFSET -2.2874 -0.477005 -0.6314
                    CHANNELS 3 Zrotation Xrotation Yrotation
                    JOINT RightHandPinky3
                    {
                      OFFSET -1.6774 -0.349396 -0.4633
                      CHANNELS 3 Zrotation Xrotation Yrotation
                      End Site
                      {
                        OFFSET -1.4888 -0.4091 -0.3416
                      }
                    }
                  }
                }
                JOINT RightHandThumb1
                {
                  OFFSET -1.833 -1.38751 1.3896
                  CHANNELS 3 Zrotation Xrotation Yrotation
                  JOINT RightHandThumb2
                  {
                    OFFSET -3.41299 -1.12099 2.5732
                    CHANNELS 3 Zrotation Xrotation Yrotation
                    JOINT RightHandThumb3
                    {
                      OFFSET -2.24741 -0.804108 1.6192
                      CHANNELS 3 Zrotation Xrotation Yrotation
                      End Site
                      {
                        OFFSET -1.6527 -0.5689 1.1317
                      }
                    }
                  }
                }
              }
            }
          }
        }
      }
    }
  }
  JOINT RightUpLeg
  {
    OFFSET -9.1966 3.8861 -0.7581
    CHANNELS 3 Zrotation Xrotation Yrotation
    JOINT RightLeg
    {
      OFFSET -0.7359 -41.0265 0
      CHANNELS 3 Zrotation Xrotation Yrotation
      JOINT RightFoot
      {
        OFFSET 0 -40.2855 0
        CHANNELS 3 Zrotation Xrotation Yrotation
        JOINT RightToeBase
        {
          OFFSET 0 -5.6122 11.7359
          CHANNELS 3 Zrotation Xrotation Yrotation
          End Site
          {
            OFFSET 0 0 7.8731
          }
        }
      }
    }
  }
  JOINT LeftUpLeg
  {
    OFFSET 9.1965 3.8864 -0.7581
    CHANNELS 3 Zrotation Xrotation Yrotation
    JOINT LeftLeg
    {
      OFFSET 0.7359 -41.0268 0
      CHANNELS 3 Zrotation Xrotation Yrotation
      JOINT LeftFoot
      {
        OFFSET 0 -40.2855 0
        CHANNELS 3 Zrotation Xrotation Yrotation
        JOINT LeftToeBase
        {
          OFFSET 0 -5.6122 11.7359
          CHANNELS 3 Zrotation Xrotation Yrotation
          End Site
          {
            OFFSET 0 0 7.8731
          }
        }
      }
    }
  }
}
MOTION
Frames:	5
Frame Time:	0.0333333
5.84602e-005 68.8428 3.50346 0 0 -0 0 0 -0 0 0 -0 0 0 -0 0 0 -0 0 0 -0 0 0 -0 0 0 -0 0 0 -0 0 0 -0 0 0 -0 0 0 -0 0 0 -0 0 0 -0 -0.0146107 -8.87603e-005 -2.63497e-007 2.99804e-018 -2.42657e-020 -1.42182e-022 0 0 -0 -0.0187562 -0.001176 5.858e-005 5.06224e-018 3.88251e-019 1.21329e-020 0 0 -0 -0.012269 -0.00324817 0.000675346 -1.74678e-018 3.88251e-019 -0 0 0 -0 0 0 -0 0 0 -0 0 0 -0 0 0 -0 0 0 -0 0 0 -0 0 0 -0 0 0 -0 0 0 -0 0 0 -0 0.0149955 -9.10982e-005 2.64101e-007 -9.69331e-018 1.21329e-020 -4.7394e-023 0 0 -0 0.0189956 -0.00119102 -5.96516e-005 -5.41541e-019 0 2.42657e-020 0 0 -0 0.0122698 -0.00324857 -0.000673756 -2.00796e-019 0 -1.94126e-019 0 0 -0 0 0 -0 0 0 -0 3.39842 1.33031 -0.0637918 -5.65207e-008 0.834868 -0.000436188 -3.39935 -2.16518 -0.0642563 -8.89002e-024 -1.18485e-023 -1.48106e-024 -3.39844 1.35642 0.0640283 -3.18788e-007 0.782166 -0.000588827 3.39931 -2.13858 0.0634662 1.1399e-023 0 -0 
-0.0389504 67.8297 -57.6182 0 0 -0 0 2.07373 -0 0 4.14746 -0 0 4.14746 -0 0.0020154 11.1104 0.0286751 2.03748e-009 -1.67764e-006 5.75757e-010 6.74895 -11.3996 -19.1236 31.4522 -43.4 15.3943 13.4677 -1.68123 -94.7491 14.1158 -17.0244 -2.32646 2.20695e-031 -1.59028e-015 7.95139e-015 2.20695e-031 -7.95139e-015 1.59028e-015 -3.18055e-015 -3.18055e-015 1.51076e-014 2.20695e-031 -1.59028e-015 7.95139e-015 -0.014536 -8.7538e-005 1.31599e-006 -3.18055e-015 0 -1.66979e-014 2.20695e-031 -1.59028e-015 7.95139e-015 -0.0188141 -0.00118213 5.96203e-005 -3.18055e-015 -7.95139e-015 -7.95139e-016 2.20695e-031 -1.59028e-015 7.95139e-015 -0.0123507 -0.00327608 0.000678781 4.23416e-007 -1.69107e-006 -2.40336e-006 2.20695e-031 -1.59028e-015 7.95139e-015 2.20695e-031 -7.95139e-015 1.59028e-015 -3.18055e-015 -3.18055e-015 1.51076e-014 2.21966 7.40635 -0.000421316 36.6849 21.9825 8.79112 10.7478 -9.90076 33.7978 -22.223 -4.44425 -0.000925909 -1.74333e-006 4.87586e-007 6.44854e-007 -1.48761e-006 -4.36851e-008 -4.76643e-007 -7.86226e-008 -2.65681e-007 9.67734e-008 -1.74333e-006 4.87586e-007 6.44854e-007 0.0150282 -9.11821e-005 4.25361e-006 -7.86225e-008 -2.65669e-007 9.68083e-008 -1.74333e-006 4.87586e-007 6.44854e-007 0.0190997 -0.00119922 -6.24013e-005 -7.86214e-008 -2.65665e-007 9.68185e-008 -1.74333e-006 4.87586e-007 6.44854e-007 0.0123184 -0.00326174 -0.000683854 -7.86182e-008 -2.65671e-007 9.68042e-008 -1.74333e-006 4.87586e-007 6.44854e-007 -1.48761e-006 -4.36851e-008 -4.76643e-007 -7.86226e-008 -2.65681e-007 9.67734e-008 -0.970153 -0.277146 -0.214948 -2.07891e-006 4.48142 -0.816062 -3.69715 20.1895 0.658434 -4.51513e-008 -8.02607e-009 2.08449e-007 18.7177 -32.7251 19.049 -0.0179823 78.0914 1.84098 3.36889 3.53611 1.11152 2.1509e-006 1.97536e-006 -2.91759e-007 
-0.0282779 67.3468 -85.1334 0 0 -0 0 3.00691 -0 0 6.01381 -0 0 6.0138 -0 0.00204959 16.1092 -0.102502 6.15472e-009 -3.28974e-006 1.36317e-010 7.29623 -15.4895 -28.2752 60.1324 -60.1069 33.7257 11.2111 -20.5657 -134.161 20.0497 -24.6628 -3.54962 -4.77723e-008 -1.20901e-006 -6.26863e-010 3.18055e-015 1.59028e-015 -0 3.18055e-015 1.59028e-015 -1.59028e-015 -4.77723e-008 -1.20901e-006 -6.26863e-010 -0.0146261 -9.1349e-005 2.1304e-006 -2.42765e-031 1.74931e-014 7.95139e-016 -4.77723e-008 -1.20901e-006 -6.26863e-010 -0.0187615 -0.00117642 5.65314e-005 -3.18055e-015 0 2.38542e-015 -4.77723e-008 -1.20901e-006 -6.26863e-010 -0.0123339 -0.00327232 0.000678419 3.18055e-015 3.18055e-015 -7.95139e-016 -4.77723e-008 -1.20901e-006 -6.26863e-010 3.18055e-015 1.59028e-015 -0 3.18055e-015 1.59028e-015 -1.59028e-015 3.21855 10.7392 -0.000617837 50.6459 31.4552 13.8866 19.0545 -11.3713 49.4801 -32.2233 -6.44416 -0.00135256 -1.4669e-006 -6.16604e-008 -6.50238e-007 -2.22176e-006 6.45863e-008 -7.16176e-007 -0 -7.95139e-016 -0 -1.4669e-006 -6.16604e-008 -6.50238e-007 0.0149396 -8.6313e-005 6.0027e-008 3.18055e-015 2.38542e-015 3.18055e-015 -1.4669e-006 -6.16604e-008 -6.50238e-007 0.0190035 -0.00119235 -5.99912e-005 -9.93923e-015 -3.18055e-015 3.18055e-015 -1.4669e-006 -6.16604e-008 -6.50238e-007 0.0122205 -0.00323793 -0.000679204 -3.97569e-016 3.18055e-015 -0 -1.4669e-006 -6.16604e-008 -6.50238e-007 -2.22176e-006 6.45863e-008 -7.16176e-007 -0 -7.95139e-016 -0 -2.95735 -1.63933 -0.276062 -2.02966e-006 7.34858 -1.22353 -4.00738 29.6581 1.06137 1.50132e-007 -5.30898e-006 -5.8675e-007 37.2979 -45.0099 34.1232 -179.982 68.3615 -176.658 3.18062 6.64592 2.05451 7.49728e-007 -3.91007e-006 -1.14459e-006 
-0.0330863 67.454 -79.0181 0 0 -0 0 2.79953 -0 0 5.59906 -0 0 5.59906 -0 -3.1188e-005 14.9983 -0.393255 5.11064e-009 -3.30635e-006 -3.21053e-008 7.30064 -14.6673 -26.2037 51.9086 -56.8452 27.9044 13.1668 -15.969 -125.287 18.9314 -22.9674 -3.2618 4.95192e-007 -1.51895e-007 -6.76329e-007 -1.0365e-006 -2.55082e-006 6.95301e-009 -1.03613e-006 -1.67612e-006 -1.21964e-006 4.95192e-007 -1.51895e-007 -6.76329e-007 -0.0145519 -8.53803e-005 -8.57417e-007 -1.0374e-006 -1.67597e-006 -1.21985e-006 4.95192e-007 -1.51895e-007 -6.76329e-007 -0.0188025 -0.00117806 5.93868e-005 -1.03778e-006 -1.67602e-006 -1.2199e-006 4.95192e-007 -1.51895e-007 -6.76329e-007 -0.0122705 -0.00325602 0.000680199 -1.03724e-006 -1.67626e-006 -1.21973e-006 4.95192e-007 -1.51895e-007 -6.76329e-007 -1.0365e-006 -2.55082e-006 6.95301e-009 -1.03613e-006 -1.67612e-006 -1.21964e-006 2.99657 9.9986 -0.000574165 47.7125 29.3893 12.6488 17.0901 -11.2766 45.992 -30.001 -5.99973 -0.00125586 3.97569e-015 7.95139e-016 -0 -6.67421e-007 6.42941e-008 -9.89434e-007 -2.53654e-006 4.55636e-007 -8.73931e-007 3.97569e-015 7.95139e-016 -0 0.0149934 -9.35065e-005 1.82062e-006 -2.53525e-006 4.55514e-007 -8.73989e-007 3.97569e-015 7.95139e-016 -0 0.0189746 -0.00118588 -5.84937e-005 -2.53491e-006 4.55387e-007 -8.73985e-007 3.97569e-015 7.95139e-016 -0 0.0122906 -0.0032532 -0.000679618 -2.53551e-006 4.55246e-007 -8.73967e-007 3.97569e-015 7.95139e-016 -0 -6.67421e-007 6.42941e-008 -9.89434e-007 -2.53654e-006 4.55636e-007 -8.73931e-007 -2.51388 -1.32006 -0.262719 -2.03213e-006 6.68342 -1.13176 -3.92731 27.5656 0.963745 9.93923e-016 -2.22639e-014 -1.39149e-015 32.8668 -42.4095 30.6106 -179.991 75.8045 -177.085 3.2457 5.96746 1.78059 -6.83092e-007 -9.73598e-009 1.5258e-006 
-0.03305 67.454 -79.0181 0 0 -0 0 2.79953 -0 0 5.59906 -0 0 5.59906 -0 -5.15646e-005 14.9983 -0.655506 2.4944e-008 1.42642e-010 1.1668e-007 7.30064 -14.6673 -26.2038 51.7532 -56.8901 27.7187 13.1668 -15.969 -125.287 19.0702 -22.9674 -3.26177 1.76556e-031 6.36111e-015 -1.59028e-015 -1.51311e-006 -1.53262e-006 -5.46729e-007 -1.06108e-006 -2.5419e-006 2.26964e-008 1.76556e-031 6.36111e-015 -1.59028e-015 -0.0145901 -8.97288e-005 -5.95694e-007 -1.05915e-006 -2.54189e-006 2.23736e-008 1.76556e-031 6.36111e-015 -1.59028e-015 -0.0188376 -0.00118505 5.80871e-005 -1.05859e-006 -2.54175e-006 2.22817e-008 1.76556e-031 6.36111e-015 -1.59028e-015 -0.0124181 -0.00328637 0.000683538 -6.36111e-015 6.36111e-015 7.95139e-016 1.76556e-031 6.36111e-015 -1.59028e-015 -1.51311e-006 -1.53262e-006 -5.46729e-007 -1.06108e-006 -2.5419e-006 2.26964e-008 2.99657 9.9986 -0.000574145 47.7125 29.3893 12.6488 17.0901 -11.2766 45.992 -30.001 -5.99973 -0.00125125 -7.95139e-016 4.77083e-015 -6.36111e-015 -2.32921e-007 -7.14183e-007 4.00495e-007 5.56597e-015 -1.59028e-015 6.36111e-015 -7.95139e-016 4.77083e-015 -6.36111e-015 0.0149909 -9.29246e-005 -5.23524e-006 -2.53525e-006 4.55514e-007 -8.73988e-007 -7.95139e-016 4.77083e-015 -6.36111e-015 0.0189739 -0.00119112 -5.8358e-005 -7.95139e-016 3.18055e-015 6.36111e-015 -7.95139e-016 4.77083e-015 -6.36111e-015 0.0122884 -0.00325234 -0.000678369 1.59028e-015 0 3.18055e-015 -7.95139e-016 4.77083e-015 -6.36111e-015 -2.32921e-007 -7.14183e-007 4.00495e-007 5.56597e-015 -1.59028e-015 6.36111e-015 -2.5139 -1.31998 -0.262719 -3.245e-006 6.68325 -1.13175 -3.92729 27.5657 0.963743 -4.0875e-007 -7.09898e-009 -1.21062e-007 33.1444 -42.3039 31.0051 -179.99 75.8041 -177.083 3.24748 5.97499 1.7814 -3.54409e-007 1.01713e-007 -2.14918e-007 
